<svg width="17" height="17" viewBox="0 0 24 24" fill="none" xmlns="http://www.w3.org/2000/svg">
<path d="M17.033 6.96601C17.617 7.54901 17.617 8.49501 17.033 9.07801L9.07801 17.034C8.49501 17.617 7.54901 17.617 6.96601 17.034C6.38301 16.451 6.38301 15.505 6.96601 14.922L14.922 6.96601C15.504 6.38301 16.45 6.38301 17.033 6.96601ZM7.89501 20.352C6.72401 21.523 4.81901 21.523 3.64701 20.352C2.47601 19.181 2.47601 17.275 3.64701 16.104L9.28601 10.472C7.39401 10.013 5.31501 10.522 3.83701 12L1.69001 14.147C-0.563988 16.401 -0.563988 20.056 1.69001 22.31C3.94401 24.564 7.59901 24.564 9.85301 22.31L12 20.162C13.477 18.685 13.986 16.606 13.527 14.714L7.89501 20.352ZM14.146 1.69001L12 3.83801C10.522 5.31601 10.01 7.39101 10.47 9.28301L16.104 3.64801C17.276 2.47701 19.181 2.47701 20.352 3.64801C21.524 4.81901 21.524 6.72501 20.352 7.89601L14.717 13.531C16.61 13.99 18.685 13.478 20.162 12.001L22.308 9.85401C24.562 7.60001 24.562 3.94601 22.308 1.69101C20.055 -0.562994 16.4 -0.562994 14.146 1.69001Z" fill="black"/>
</svg>
