<svg width="108" height="39" viewBox="0 0 108 39" fill="none" xmlns="http://www.w3.org/2000/svg">
<path d="M14.6477 14.4205C14.5568 13.5038 14.1667 12.7917 13.4773 12.2841C12.7879 11.7765 11.8523 11.5227 10.6705 11.5227C9.86742 11.5227 9.18939 11.6364 8.63636 11.8636C8.08333 12.0833 7.65909 12.3902 7.36364 12.7841C7.07576 13.178 6.93182 13.625 6.93182 14.125C6.91667 14.5417 7.00379 14.9053 7.19318 15.2159C7.39015 15.5265 7.65909 15.7955 8 16.0227C8.34091 16.2424 8.73485 16.4356 9.18182 16.6023C9.62879 16.7614 10.1061 16.8977 10.6136 17.0114L12.7045 17.5114C13.7197 17.7386 14.6515 18.0417 15.5 18.4205C16.3485 18.7992 17.0833 19.2652 17.7045 19.8182C18.3258 20.3712 18.8068 21.0227 19.1477 21.7727C19.4962 22.5227 19.6742 23.3826 19.6818 24.3523C19.6742 25.7765 19.3106 27.0114 18.5909 28.0568C17.8788 29.0947 16.8485 29.9015 15.5 30.4773C14.1591 31.0455 12.5417 31.3295 10.6477 31.3295C8.76894 31.3295 7.13258 31.0417 5.73864 30.4659C4.35227 29.8902 3.26894 29.0379 2.48864 27.9091C1.71591 26.7727 1.31061 25.3674 1.27273 23.6932H6.03409C6.08712 24.4735 6.31061 25.125 6.70455 25.6477C7.10606 26.1629 7.64015 26.553 8.30682 26.8182C8.98106 27.0758 9.74242 27.2045 10.5909 27.2045C11.4242 27.2045 12.1477 27.0833 12.7614 26.8409C13.3826 26.5985 13.8636 26.2614 14.2045 25.8295C14.5455 25.3977 14.7159 24.9015 14.7159 24.3409C14.7159 23.8182 14.5606 23.3788 14.25 23.0227C13.947 22.6667 13.5 22.3636 12.9091 22.1136C12.3258 21.8636 11.6098 21.6364 10.7614 21.4318L8.22727 20.7955C6.26515 20.3182 4.71591 19.572 3.57955 18.5568C2.44318 17.5417 1.87879 16.1742 1.88636 14.4545C1.87879 13.0455 2.25379 11.8144 3.01136 10.7614C3.77652 9.70833 4.82576 8.88636 6.15909 8.29545C7.49242 7.70454 9.00758 7.40909 10.7045 7.40909C12.4318 7.40909 13.9394 7.70454 15.2273 8.29545C16.5227 8.88636 17.5303 9.70833 18.25 10.7614C18.9697 11.8144 19.3409 13.0341 19.3636 14.4205H14.6477ZM27.7415 20.9091V31H22.9006V7.72727H27.6051V16.625H27.8097C28.2036 15.5947 28.84 14.7879 29.7188 14.2045C30.5975 13.6136 31.6998 13.3182 33.0256 13.3182C34.2377 13.3182 35.2945 13.5833 36.196 14.1136C37.1051 14.6364 37.8097 15.3902 38.3097 16.375C38.8172 17.3523 39.0672 18.5227 39.0597 19.8864V31H34.2188V20.75C34.2263 19.6742 33.9536 18.8371 33.4006 18.2386C32.8551 17.6402 32.09 17.3409 31.1051 17.3409C30.446 17.3409 29.8627 17.4811 29.3551 17.7614C28.8551 18.0417 28.4612 18.4508 28.1733 18.9886C27.893 19.5189 27.7491 20.1591 27.7415 20.9091ZM42.8693 31V13.5455H47.5625V16.5909H47.7443C48.0625 15.5076 48.5966 14.6894 49.3466 14.1364C50.0966 13.5758 50.9602 13.2955 51.9375 13.2955C52.1799 13.2955 52.4413 13.3106 52.7216 13.3409C53.0019 13.3712 53.2481 13.4129 53.4602 13.4659V17.7614C53.233 17.6932 52.9186 17.6326 52.517 17.5795C52.1155 17.5265 51.7481 17.5 51.4148 17.5C50.7027 17.5 50.0663 17.6553 49.5057 17.9659C48.9527 18.2689 48.5133 18.6932 48.1875 19.2386C47.8693 19.7841 47.7102 20.4129 47.7102 21.125V31H42.8693ZM66.1222 13.5455V17.1818H55.6108V13.5455H66.1222ZM57.9972 9.36364H62.8381V25.6364C62.8381 26.0833 62.9063 26.4318 63.0426 26.6818C63.179 26.9242 63.3684 27.0947 63.6108 27.1932C63.8608 27.2917 64.1487 27.3409 64.4744 27.3409C64.7017 27.3409 64.929 27.322 65.1562 27.2841C65.3835 27.2386 65.5578 27.2045 65.679 27.1818L66.4403 30.7841C66.1979 30.8598 65.857 30.947 65.4176 31.0455C64.9782 31.1515 64.4441 31.2159 63.8153 31.2386C62.6487 31.2841 61.6259 31.1288 60.7472 30.7727C59.8759 30.4167 59.1979 29.8636 58.7131 29.1136C58.2282 28.3636 57.9896 27.4167 57.9972 26.2727V9.36364ZM74.1165 20.9091V31H69.2756V13.5455H73.8892V16.625H74.0938C74.4801 15.6098 75.1278 14.8068 76.0369 14.2159C76.946 13.6174 78.0483 13.3182 79.3438 13.3182C80.5559 13.3182 81.6127 13.5833 82.5142 14.1136C83.4157 14.6439 84.1165 15.4015 84.6165 16.3864C85.1165 17.3636 85.3665 18.5303 85.3665 19.8864V31H80.5256V20.75C80.5331 19.6818 80.2604 18.8485 79.7074 18.25C79.1544 17.6439 78.393 17.3409 77.4233 17.3409C76.7718 17.3409 76.196 17.4811 75.696 17.7614C75.2036 18.0417 74.8172 18.4508 74.5369 18.9886C74.2642 19.5189 74.1241 20.1591 74.1165 20.9091ZM89.1818 31V13.5455H93.875V16.5909H94.0568C94.375 15.5076 94.9091 14.6894 95.6591 14.1364C96.4091 13.5758 97.2727 13.2955 98.25 13.2955C98.4924 13.2955 98.7538 13.3106 99.0341 13.3409C99.3144 13.3712 99.5606 13.4129 99.7727 13.4659V17.7614C99.5455 17.6932 99.2311 17.6326 98.8295 17.5795C98.428 17.5265 98.0606 17.5 97.7273 17.5C97.0152 17.5 96.3788 17.6553 95.8182 17.9659C95.2652 18.2689 94.8258 18.6932 94.5 19.2386C94.1818 19.7841 94.0227 20.4129 94.0227 21.125V31H89.1818ZM103.105 31.2955C102.355 31.2955 101.711 31.0303 101.173 30.5C100.643 29.9621 100.378 29.3182 100.378 28.5682C100.378 27.8258 100.643 27.1894 101.173 26.6591C101.711 26.1288 102.355 25.8636 103.105 25.8636C103.832 25.8636 104.469 26.1288 105.014 26.6591C105.56 27.1894 105.832 27.8258 105.832 28.5682C105.832 29.0682 105.704 29.5265 105.446 29.9432C105.196 30.3523 104.866 30.6818 104.457 30.9318C104.048 31.1742 103.598 31.2955 103.105 31.2955Z" fill="black"/>
</svg>
